<svg width="176" height="35" viewBox="0 0 176 35" fill="none" xmlns="http://www.w3.org/2000/svg">
<path d="M21.4192 17.2748C20.0093 15.1034 18.6073 12.9476 17.1974 10.7781C17.2347 10.7368 17.2701 10.6955 17.3095 10.6581C18.1845 9.81822 19.1578 9.11406 20.2256 8.53775C21.427 7.88866 22.6973 7.42643 24.0344 7.15303C24.8052 6.99568 25.5839 6.90323 26.3705 6.88553C29.7782 6.81079 32.83 7.81785 35.4806 9.96181C37.8658 11.8894 39.4192 14.3677 40.1901 17.3358C40.369 18.0223 40.4811 18.7205 40.5479 19.4286C40.6227 20.2233 40.6325 21.0179 40.5656 21.8106C40.3277 24.6154 39.3563 27.139 37.6004 29.3439C35.7303 31.6905 33.3353 33.2601 30.4507 34.0764C29.7329 34.2789 29.0034 34.4127 28.2621 34.4914C27.4638 34.5779 26.6654 34.5996 25.8651 34.5425C23.594 34.3793 21.4781 33.7144 19.5373 32.5186C17.748 31.4171 16.2968 29.9694 15.1524 28.207C12.2972 23.8051 9.4381 19.405 6.58098 15.003C4.60085 11.9622 2.62465 8.9154 0.644527 5.87059C0.292548 5.32969 0.0644498 4.74551 0.0133244 4.10036C-0.0633637 3.11689 0.190297 2.22391 0.792004 1.43714C1.38388 0.664134 2.16846 0.188137 3.12804 0.0681541C4.71293 -0.128539 5.995 0.430069 6.88183 1.76561C8.05575 3.52602 9.18641 5.31002 10.3367 7.08026C13.0896 11.319 15.8465 15.5577 18.6014 19.7945C19.5511 21.2559 20.5009 22.7154 21.4565 24.1729C22.4358 25.6697 23.8004 26.6335 25.5524 26.9797C27.7135 27.4065 29.6169 26.8341 31.2215 25.3255C32.2145 24.3912 32.8221 23.2287 33.0679 21.8893C33.6873 18.5219 31.5951 15.3512 28.3663 14.5388C27.6584 14.3599 26.9387 14.2891 26.2131 14.3677C24.2271 14.5841 22.654 15.5105 21.5096 17.1549C21.4919 17.1804 21.4762 17.206 21.4585 17.2296C21.4506 17.2394 21.4447 17.2453 21.4192 17.2748Z" fill="#F11075"/>
<path d="M41.0454 10.4416C41.0729 10.3944 41.0926 10.359 41.1162 10.3256C42.9724 7.46173 44.8267 4.59395 46.6869 1.73207C47.3162 0.762376 48.2167 0.1959 49.3572 0.0365789C50.9657 -0.189618 52.5015 0.648294 53.1858 2.13333C53.7619 3.38429 53.6891 4.61756 52.9459 5.78395C51.9941 7.27881 51.0208 8.76188 50.0573 10.2489C48.1735 13.156 46.2897 16.0631 44.404 18.9702C44.3745 19.0155 44.343 19.0607 44.2879 19.1374C43.9832 15.9274 42.8997 13.0439 41.0454 10.4416Z" fill="#F11075"/>
<path d="M75.5687 34.7904C75.3131 34.755 75.0575 34.7176 74.8019 34.6861C73.5847 34.5327 72.4167 34.2101 71.3116 33.6712C70.5919 33.3211 69.9135 32.9061 69.2705 32.432C67.9373 31.4486 67.0033 30.1563 66.3249 28.6614C65.7802 27.4597 65.4557 26.1988 65.3004 24.8908C65.1903 23.9723 65.151 23.0518 65.151 22.1273C65.151 16.8205 65.149 11.5138 65.1549 6.20698C65.1549 5.8431 65.1942 5.47135 65.263 5.11337C65.3633 4.59607 65.6445 4.17711 66.0692 3.8506C66.7929 3.29396 67.6246 3.15431 68.5056 3.18971C69.2115 3.21725 69.886 3.39231 70.5427 3.63621C70.5683 3.64604 70.5938 3.65391 70.6194 3.66374C71.0146 3.827 71.0146 3.827 71.0166 4.24792C71.0225 9.67074 71.0284 15.0955 71.0343 20.5184C71.0343 21.2973 71.0186 22.0781 71.0166 22.857C71.0146 23.6753 71.1208 24.4817 71.3155 25.2783C71.5692 26.3129 72.1276 27.1607 72.8847 27.8904C72.8906 27.8963 72.8984 27.9022 72.9043 27.9081C74.1333 29.1158 75.6415 29.4974 77.3011 29.3184C79.6922 29.0607 81.5642 27.3102 82.0243 24.9341C82.3055 23.4865 82.2327 22.0506 81.6566 20.6836C80.9232 18.9468 79.5762 17.9161 77.7494 17.5227C76.8154 17.3221 75.8775 17.3614 74.9572 17.623C74.2493 17.8237 73.6102 18.1561 73.0557 18.6439C73.0046 18.6891 72.9476 18.7285 72.863 18.7934C72.8571 18.6734 72.8512 18.5868 72.8512 18.5003C72.8512 16.7969 72.8552 15.0936 72.8453 13.3902C72.8434 13.1778 72.9083 13.0755 73.1029 12.989C74.2631 12.4756 75.4744 12.1904 76.7427 12.1412C78.2725 12.0842 79.7728 12.2514 81.2004 12.8159C84.1578 13.9842 86.2284 16.0574 87.3925 19.0196C88.065 20.7328 88.2832 22.5168 88.1672 24.348C88.0768 25.7858 87.7543 27.1626 87.1506 28.4706C86.1203 30.7031 84.4744 32.3416 82.3153 33.4844C80.9664 34.1983 79.527 34.5976 78.011 34.7373C77.9323 34.7452 77.8556 34.7707 77.777 34.7884C77.0396 34.7904 76.3042 34.7904 75.5687 34.7904Z" fill="#F11075"/>
<path d="M100.25 34.7902C100.002 34.7567 99.7567 34.7154 99.5089 34.6899C98.569 34.5915 97.6507 34.387 96.7659 34.0663C93.7003 32.957 91.7595 30.8288 91.03 27.6345C90.8451 26.828 90.8137 26.0019 90.8137 25.1758C90.8137 21.832 90.792 18.4883 90.8274 15.1464C90.8373 14.2181 91.2502 13.4392 92.1567 13.0123C92.6699 12.7704 93.2126 12.674 93.7731 12.6662C94.7307 12.6524 95.6372 12.8668 96.4984 13.2818C96.5299 13.2975 96.5614 13.3152 96.5928 13.3329C96.6066 13.3428 96.6184 13.3546 96.6518 13.3841C96.6518 13.4824 96.6518 13.5985 96.6518 13.7145C96.6518 17.2373 96.6518 20.7601 96.6518 24.2828C96.6518 25.0834 96.7187 25.876 96.9605 26.6451C97.0097 26.7985 97.0647 26.95 97.1237 27.0995C97.5622 28.1754 98.3488 28.8756 99.4637 29.1825C100.626 29.5031 101.802 29.5129 102.972 29.2277C104.293 28.9071 105.135 28.0554 105.573 26.7867C105.778 26.1986 105.874 25.5889 105.904 24.9693C105.917 24.6743 105.917 24.3772 105.917 24.0822C105.917 21.2597 105.915 18.4352 105.921 15.6126C105.921 15.3176 105.943 15.0206 105.996 14.7314C106.179 13.7578 106.773 13.1461 107.711 12.853C108.249 12.6839 108.804 12.6603 109.36 12.6937C110.117 12.7389 110.843 12.9278 111.545 13.2149C111.736 13.2936 111.807 13.3998 111.805 13.6162C111.797 17.5422 111.801 21.4682 111.797 25.3942C111.795 26.6412 111.582 27.8528 111.15 29.0251C110.403 31.0491 109.03 32.5066 107.136 33.4999C106.022 34.084 104.832 34.4322 103.595 34.625C103.251 34.6781 102.901 34.7036 102.555 34.7449C102.486 34.7528 102.417 34.7764 102.348 34.7941C101.648 34.7902 100.95 34.7902 100.25 34.7902Z" fill="#F11075"/>
<path d="M175.265 15.9118C175.246 15.9787 175.226 16.0456 175.21 16.1144C175.151 16.3465 175.128 16.5963 175.029 16.8107C174.732 17.4618 174.337 18.044 173.732 18.4846C173.643 18.4492 173.545 18.4098 173.45 18.3666C172.571 17.9712 171.667 17.6703 170.707 17.5444C169.929 17.4441 169.152 17.4303 168.381 17.5837C166.914 17.8729 166.031 18.7639 165.695 20.2115C165.557 20.8095 165.524 21.4153 165.524 22.027C165.526 25.9707 165.526 30.0167 165.526 33.9584C165.526 34.0745 165.526 34.1885 165.526 34.2987C165.314 34.3577 160.156 34.3774 159.694 34.3243C159.688 34.2515 159.676 34.1748 159.676 34.0981C159.676 29.5545 159.672 24.9086 159.68 20.365C159.682 18.994 159.936 17.6722 160.559 16.4409C161.46 14.6569 162.895 13.4787 164.755 12.7982C166.11 12.3006 167.516 12.1294 168.951 12.1334C170.092 12.1353 171.224 12.216 172.33 12.5268C172.9 12.688 173.452 12.8946 173.958 13.2132C174.573 13.6027 175.002 14.1357 175.181 14.8497C175.22 15.0051 175.242 15.1624 175.271 15.3198C175.265 15.5165 175.265 15.7132 175.265 15.9118Z" fill="#F11075"/>
<path d="M142.962 26.2988C143.003 26.4188 143.031 26.5211 143.074 26.6155C143.613 27.8035 144.521 28.6001 145.713 29.0879C146.425 29.379 147.176 29.5108 147.937 29.5659C149.333 29.6682 150.71 29.5639 152.056 29.1489C152.668 28.9601 153.23 28.667 153.803 28.3877C154.09 28.2461 154.381 28.1104 154.695 27.9589C155.45 29.3967 156.194 30.8149 156.943 32.2429C156.896 32.2842 156.862 32.3255 156.819 32.353C155.899 32.9648 154.941 33.5096 153.879 33.8381C152.698 34.2039 151.5 34.5009 150.265 34.6327C149.184 34.7488 148.102 34.7979 147.019 34.7232C145.013 34.5855 143.113 34.082 141.409 32.9785C139.21 31.5564 137.747 29.5698 137.057 27.0463C136.371 24.5384 136.4 22.0188 137.23 19.5503C138.247 16.5252 140.264 14.3773 143.176 13.0771C144.584 12.4477 146.067 12.1409 147.607 12.0897C149.066 12.0425 150.511 12.1428 151.911 12.5854C153.421 13.0634 154.778 13.8069 155.844 15.0087C156.927 16.2321 157.48 17.662 157.46 19.3064C157.45 20.0735 157.358 20.8229 157.141 21.5605C156.88 22.4555 156.386 23.197 155.7 23.8185C154.921 24.5227 154.001 24.9751 153.016 25.3075C151.909 25.6792 150.772 25.9212 149.616 26.0746C147.845 26.3106 146.063 26.346 144.278 26.3244C143.92 26.3205 143.562 26.2988 143.204 26.287C143.133 26.287 143.064 26.2949 142.962 26.2988ZM142.596 21.8988C142.718 21.9126 142.797 21.9263 142.876 21.9283C144.639 21.95 146.403 22.005 148.161 21.7788C149.036 21.6667 149.886 21.4661 150.686 21.0786C151.303 20.7796 151.685 20.3056 151.752 19.6073C151.83 18.8147 151.644 18.1223 150.944 17.6581C150.556 17.4004 150.135 17.1979 149.679 17.0798C148.788 16.8517 147.888 16.8143 146.989 16.9776C145.461 17.2569 144.24 18.0102 143.422 19.3615C143.041 19.9909 142.805 20.6714 142.671 21.3894C142.643 21.5487 142.626 21.7061 142.596 21.8988Z" fill="#F11075"/>
<path d="M131.518 19.0077C131.237 18.7855 130.981 18.5593 130.702 18.3705C129.951 17.861 129.105 17.5699 128.232 17.3496C126.95 17.0251 125.65 16.8343 124.327 16.8343C123.493 16.8343 122.661 16.8795 121.847 17.09C121.428 17.1982 121.023 17.3437 120.689 17.6309C120.27 17.9908 120.127 18.4472 120.241 18.9841C120.325 19.3834 120.583 19.647 120.935 19.824C121.452 20.0837 122.005 20.239 122.573 20.3217C123.644 20.477 124.72 20.6147 125.794 20.7583C127.097 20.9334 128.407 21.075 129.675 21.4507C130.643 21.7378 131.563 22.1194 132.414 22.6682C133.681 23.4845 134.461 24.6233 134.737 26.1044C134.971 27.3613 134.904 28.6044 134.477 29.8141C134.076 30.9529 133.366 31.8715 132.434 32.6248C131.345 33.506 130.092 34.0312 128.741 34.3498C127.31 34.6881 125.857 34.7609 124.392 34.7511C122.152 34.7334 119.971 34.3537 117.836 33.7007C116.774 33.3762 115.734 32.9828 114.764 32.4281C114.452 32.2491 114.171 32.0308 113.897 31.7594C114.664 30.3963 115.431 29.0352 116.21 27.6524C116.304 27.7193 116.387 27.7704 116.461 27.8314C116.868 28.1638 117.334 28.39 117.82 28.5828C119.096 29.0883 120.406 29.4856 121.763 29.7098C123.255 29.9557 124.754 30.0383 126.258 29.8416C126.846 29.7649 127.42 29.6213 127.957 29.3577C128.315 29.1827 128.61 28.9407 128.712 28.5336C128.808 28.1481 128.787 27.7685 128.621 27.4046C128.527 27.1961 128.376 27.0387 128.177 26.9168C127.646 26.5903 127.058 26.4349 126.454 26.3444C125.605 26.2146 124.75 26.1241 123.898 26.0159C122.718 25.8664 121.525 25.7976 120.361 25.5321C119.22 25.2724 118.125 24.8889 117.118 24.2791C116.025 23.6163 115.264 22.6702 114.831 21.4821C114.192 19.7276 114.259 17.9731 115.032 16.2757C115.641 14.9362 116.687 13.998 117.983 13.3332C118.941 12.8414 119.965 12.5602 121.017 12.3674C122.596 12.0783 124.187 12.0566 125.784 12.1314C126.832 12.1805 127.874 12.2789 128.905 12.4775C129.937 12.6782 130.94 12.9712 131.868 13.4826C132.279 13.7088 132.658 13.9763 132.979 14.3206C133.746 15.1408 133.911 16.2521 133.421 17.2611C133.17 17.7784 132.808 18.2052 132.371 18.5731C132.118 18.7894 131.817 18.9212 131.518 19.0077Z" fill="#F11075"/>
</svg>
